<svg width="64" height="65" viewBox="0 0 64 65" fill="none" xmlns="http://www.w3.org/2000/svg">
<g clip-path="url(#clip0_173_1629)">
<path d="M62.2133 34.2333V36.9C62.2259 37.5239 62.0193 38.1324 61.6295 38.6196C61.2397 39.1069 60.6914 39.442 60.08 39.5667L56.7733 40.2333C56.1436 42.8872 55.0805 45.4189 53.6267 47.7267L55.52 50.5533C55.8419 51.0568 55.9854 51.6539 55.9273 52.2487C55.8693 52.8435 55.6132 53.4015 55.2 53.8333L51.5467 57.4867C51.1094 57.9194 50.5361 58.1876 49.9237 58.2459C49.3114 58.3042 48.6977 58.149 48.1867 57.8067L45.3333 55.8867C43.0425 57.3845 40.5195 58.4929 37.8667 59.1667L37.3333 62.34C37.2087 62.9514 36.8735 63.4997 36.3863 63.8895C35.899 64.2793 35.2905 64.4859 34.6667 64.4733H29.3333C28.7095 64.4859 28.101 64.2793 27.6137 63.8895C27.1265 63.4997 26.7913 62.9514 26.6667 62.34L26.1333 59.1667C23.4805 58.4929 20.9575 57.3845 18.6667 55.8867L15.84 57.78C15.329 58.1224 14.7153 58.2775 14.1029 58.2192C13.4906 58.1609 12.9172 57.8927 12.48 57.46L8.8 53.8333C8.36732 53.3961 8.09909 52.8228 8.04078 52.2104C7.98246 51.5981 8.13763 50.9844 8.48 50.4733L10.3733 47.6467C8.91952 45.3389 7.85636 42.8072 7.22667 40.1533L3.92 39.4867C3.3086 39.362 2.76027 39.0269 2.37047 38.5396C1.98068 38.0524 1.77409 37.4439 1.78667 36.82V34.1533H19.28C19.28 37.5269 20.6201 40.7623 23.0056 43.1477C25.3911 45.5332 28.6264 46.8733 32 46.8733C35.3736 46.8733 38.6089 45.5332 40.9944 43.1477C43.3799 40.7623 44.72 37.5269 44.72 34.1533L62.2133 34.2333ZM45.7867 10.66C45.7867 12.3008 46.4385 13.8744 47.5987 15.0346C48.7589 16.1949 50.3325 16.8467 51.9733 16.8467C53.6141 16.8467 55.1877 16.1949 56.348 15.0346C57.5082 13.8744 58.16 12.3008 58.16 10.66C58.16 9.01919 57.5082 7.44559 56.348 6.28537C55.1877 5.12514 53.6141 4.47333 51.9733 4.47333C50.3325 4.47333 48.7589 5.12514 47.5987 6.28537C46.4385 7.44559 45.7867 9.01919 45.7867 10.66ZM5.86667 10.66C5.86667 12.3008 6.51847 13.8744 7.6787 15.0346C8.83892 16.1949 10.4125 16.8467 12.0533 16.8467C13.6941 16.8467 15.2677 16.1949 16.428 15.0346C17.5882 13.8744 18.24 12.3008 18.24 10.66C18.24 9.01919 17.5882 7.44559 16.428 6.28537C15.2677 5.12514 13.6941 4.47333 12.0533 4.47333C10.4125 4.47333 8.83892 5.12514 7.6787 6.28537C6.51847 7.44559 5.86667 9.01919 5.86667 10.66ZM18.1333 23.9667C17.1765 23.3582 16.146 22.8743 15.0667 22.5267C12.2077 21.7232 9.16074 21.9135 6.42394 23.0663C3.68713 24.2192 1.4224 26.2664 0 28.8733H15.28C16.0703 27.1494 17.0258 25.5061 18.1333 23.9667ZM48.48 28.9533H64C62.5848 26.3312 60.3193 24.2689 57.576 23.1057C54.8328 21.9425 51.7753 21.7477 48.9067 22.5533C47.8076 22.9051 46.7588 23.3982 45.7867 24.02C46.8336 25.5785 47.7351 27.2299 48.48 28.9533ZM45.52 28.9533C44.4553 26.1886 42.6111 23.7923 40.2113 22.0551C37.8114 20.3179 34.9589 19.3146 32 19.1667C29.0166 19.2981 26.1362 20.2963 23.7113 22.0392C21.2864 23.7821 19.4222 26.1941 18.3467 28.98L45.52 28.9533ZM23.9733 8.26C23.9733 10.3181 24.7909 12.2919 26.2462 13.7471C27.7015 15.2024 29.6753 16.02 31.7333 16.02C33.7914 16.02 35.7652 15.2024 37.2205 13.7471C38.6758 12.2919 39.4933 10.3181 39.4933 8.26C39.4933 6.20192 38.6758 4.22813 37.2205 2.77285C35.7652 1.31757 33.7914 0.5 31.7333 0.5C29.6753 0.5 27.7015 1.31757 26.2462 2.77285C24.7909 4.22813 23.9733 6.20192 23.9733 8.26Z" fill="#7EC1B1"/>
</g>
<defs>
<clipPath id="clip0_173_1629">
<rect width="64" height="64" fill="white" transform="translate(0 0.5)"/>
</clipPath>
</defs>
</svg>
