<svg width="65" height="65" viewBox="0 0 65 65" fill="none" xmlns="http://www.w3.org/2000/svg">
<g clip-path="url(#clip0_173_1644)">
<path d="M47.0938 19.0938L49.9062 21.9062L26.5 45.3125L15.0938 33.9062L17.9062 31.0938L26.5 39.6875L47.0938 19.0938ZM32.5 0.5C35.4375 0.5 38.2708 0.875 41 1.625C43.7292 2.375 46.2812 3.44792 48.6562 4.84375C51.0312 6.23958 53.1875 7.90625 55.125 9.84375C57.0625 11.7812 58.7292 13.9479 60.125 16.3438C61.5208 18.7396 62.5938 21.2917 63.3438 24C64.0938 26.7083 64.4792 29.5417 64.5 32.5C64.5 35.4375 64.125 38.2708 63.375 41C62.625 43.7292 61.5521 46.2812 60.1562 48.6562C58.7604 51.0312 57.0938 53.1875 55.1562 55.125C53.2188 57.0625 51.0521 58.7292 48.6562 60.125C46.2604 61.5208 43.7083 62.5938 41 63.3438C38.2917 64.0938 35.4583 64.4792 32.5 64.5C29.5625 64.5 26.7292 64.125 24 63.375C21.2708 62.625 18.7188 61.5521 16.3438 60.1562C13.9688 58.7604 11.8125 57.0938 9.875 55.1562C7.9375 53.2188 6.27083 51.0521 4.875 48.6562C3.47917 46.2604 2.40625 43.7188 1.65625 41.0312C0.90625 38.3438 0.520833 35.5 0.5 32.5C0.5 29.5625 0.875 26.7292 1.625 24C2.375 21.2708 3.44792 18.7188 4.84375 16.3438C6.23958 13.9688 7.90625 11.8125 9.84375 9.875C11.7812 7.9375 13.9479 6.27083 16.3438 4.875C18.7396 3.47917 21.2812 2.40625 23.9688 1.65625C26.6562 0.90625 29.5 0.520833 32.5 0.5ZM32.5 60.5C35.0625 60.5 37.5312 60.1667 39.9062 59.5C42.2812 58.8333 44.5104 57.8958 46.5938 56.6875C48.6771 55.4792 50.5729 54.0104 52.2812 52.2812C53.9896 50.5521 55.4479 48.6667 56.6562 46.625C57.8646 44.5833 58.8125 42.3542 59.5 39.9375C60.1875 37.5208 60.5208 35.0417 60.5 32.5C60.5 29.9375 60.1667 27.4688 59.5 25.0938C58.8333 22.7188 57.8958 20.4896 56.6875 18.4062C55.4792 16.3229 54.0104 14.4271 52.2812 12.7188C50.5521 11.0104 48.6667 9.55208 46.625 8.34375C44.5833 7.13542 42.3542 6.1875 39.9375 5.5C37.5208 4.8125 35.0417 4.47917 32.5 4.5C29.9375 4.5 27.4688 4.83333 25.0938 5.5C22.7188 6.16667 20.4896 7.10417 18.4062 8.3125C16.3229 9.52083 14.4271 10.9896 12.7188 12.7188C11.0104 14.4479 9.55208 16.3333 8.34375 18.375C7.13542 20.4167 6.1875 22.6458 5.5 25.0625C4.8125 27.4792 4.47917 29.9583 4.5 32.5C4.5 35.0625 4.83333 37.5312 5.5 39.9062C6.16667 42.2812 7.10417 44.5104 8.3125 46.5938C9.52083 48.6771 10.9896 50.5729 12.7188 52.2812C14.4479 53.9896 16.3333 55.4479 18.375 56.6562C20.4167 57.8646 22.6458 58.8125 25.0625 59.5C27.4792 60.1875 29.9583 60.5208 32.5 60.5Z" fill="#7EC1B1"/>
</g>
<defs>
<clipPath id="clip0_173_1644">
<rect width="64" height="64" fill="white" transform="translate(0.5 0.5)"/>
</clipPath>
</defs>
</svg>
