<svg width="65" height="65" viewBox="0 0 65 65" fill="none" xmlns="http://www.w3.org/2000/svg">
<path d="M45.8337 32.4993C38.4737 32.4993 32.5003 38.4727 32.5003 45.8327C32.5003 53.1927 38.4737 59.166 45.8337 59.166C53.1937 59.166 59.167 53.1927 59.167 45.8327C59.167 38.4727 53.1937 32.4993 45.8337 32.4993ZM50.2337 52.0993L44.5003 46.366V37.8327H47.167V45.2727L52.1003 50.206L50.2337 52.0993ZM53.8337 8.49935H40.0203C38.9003 5.40602 35.967 3.16602 32.5003 3.16602C29.0337 3.16602 26.1003 5.40602 24.9803 8.49935H11.167V59.166H32.7937C31.214 57.6364 29.9303 55.8283 29.007 53.8327H16.5003V13.8327H21.8337V21.8327H43.167V13.8327H48.5003V27.3793C50.3937 27.646 52.1803 28.206 53.8337 28.9794V8.49935ZM32.5003 13.8327C31.0337 13.8327 29.8337 12.6327 29.8337 11.166C29.8337 9.69935 31.0337 8.49935 32.5003 8.49935C33.967 8.49935 35.167 9.69935 35.167 11.166C35.167 12.6327 33.967 13.8327 32.5003 13.8327Z" fill="#7EC1B1"/>
</svg>
