<svg width="64" height="65" viewBox="0 0 64 65" fill="none" xmlns="http://www.w3.org/2000/svg">
<path d="M2.7998 56.5V49.0333C2.7998 47.5667 3.17758 46.1889 3.93314 44.9C4.68869 43.6111 5.73314 42.6333 7.06647 41.9667C9.33314 40.8111 11.8887 39.8333 14.7331 39.0333C17.5776 38.2333 20.7109 37.8333 24.1331 37.8333C27.5554 37.8333 30.6887 38.2333 33.5331 39.0333C36.3776 39.8333 38.9331 40.8111 41.1998 41.9667C42.5331 42.6333 43.5776 43.6111 44.3331 44.9C45.0887 46.1889 45.4665 47.5667 45.4665 49.0333V56.5H2.7998ZM24.1331 35.1667C21.1998 35.1667 18.6887 34.1222 16.5998 32.0333C14.5109 29.9444 13.4665 27.4333 13.4665 24.5H12.7998C12.3998 24.5 12.078 24.3782 11.8345 24.1347C11.5909 23.8911 11.4683 23.5684 11.4665 23.1667C11.4647 22.7649 11.5874 22.4422 11.8345 22.1987C12.0816 21.9551 12.4034 21.8333 12.7998 21.8333H13.4665C13.4665 19.8333 13.9554 18.0333 14.9331 16.4333C15.9109 14.8333 17.1998 13.5667 18.7998 12.6333V15.1667C18.7998 15.5667 18.9225 15.8893 19.1678 16.1347C19.4131 16.38 19.7349 16.5018 20.1331 16.5C20.5314 16.4982 20.854 16.3764 21.1011 16.1347C21.3482 15.8929 21.47 15.5702 21.4665 15.1667V11.5667C21.8665 11.4333 22.2887 11.3338 22.7331 11.268C23.1776 11.2022 23.6442 11.1684 24.1331 11.1667C24.622 11.1649 25.0887 11.1987 25.5331 11.268C25.9776 11.3373 26.3998 11.4369 26.7998 11.5667V15.1667C26.7998 15.5667 26.9225 15.8893 27.1678 16.1347C27.4131 16.38 27.7349 16.5018 28.1331 16.5C28.5314 16.4982 28.854 16.3764 29.1011 16.1347C29.3482 15.8929 29.47 15.5702 29.4665 15.1667V12.6333C31.0665 13.5667 32.3554 14.8333 33.3331 16.4333C34.3109 18.0333 34.7998 19.8333 34.7998 21.8333H35.4665C35.8665 21.8333 36.1891 21.956 36.4345 22.2013C36.6798 22.4467 36.8016 22.7684 36.7998 23.1667C36.798 23.5649 36.6763 23.8876 36.4345 24.1347C36.1927 24.3818 35.87 24.5036 35.4665 24.5H34.7998C34.7998 27.4333 33.7554 29.9444 31.6665 32.0333C29.5776 34.1222 27.0665 35.1667 24.1331 35.1667ZM24.1331 29.8333C25.5998 29.8333 26.8558 29.3116 27.9011 28.268C28.9465 27.2244 29.4683 25.9684 29.4665 24.5H18.7998C18.7998 25.9667 19.3225 27.2227 20.3678 28.268C21.4131 29.3133 22.6682 29.8351 24.1331 29.8333ZM44.1331 40.5L43.7331 38.5C43.4665 38.4111 43.2114 38.3116 42.9678 38.2013C42.7243 38.0911 42.4905 37.924 42.2665 37.7L40.3998 38.3667L39.0665 35.9667L40.5331 34.6333V33.0333L39.0665 31.7L40.3998 29.3L42.2665 29.9667C42.4443 29.7889 42.6665 29.6333 42.9331 29.5C43.1998 29.3667 43.4665 29.2556 43.7331 29.1667L44.1331 27.1667H46.7998L47.1998 29.1667C47.4665 29.2556 47.7331 29.3667 47.9998 29.5C48.2665 29.6333 48.4887 29.7889 48.6665 29.9667L50.5331 29.3L51.8665 31.7L50.3998 33.0333V34.6333L51.8665 35.9667L50.5331 38.3667L48.6665 37.7C48.4443 37.9222 48.2114 38.0893 47.9678 38.2013C47.7243 38.3133 47.4683 38.4129 47.1998 38.5L46.7998 40.5H44.1331ZM45.4665 35.8333C45.9998 35.8333 46.4665 35.6333 46.8665 35.2333C47.2665 34.8333 47.4665 34.3667 47.4665 33.8333C47.4665 33.3 47.2665 32.8333 46.8665 32.4333C46.4665 32.0333 45.9998 31.8333 45.4665 31.8333C44.9331 31.8333 44.4665 32.0333 44.0665 32.4333C43.6665 32.8333 43.4665 33.3 43.4665 33.8333C43.4665 34.3667 43.6665 34.8333 44.0665 35.2333C44.4665 35.6333 44.9331 35.8333 45.4665 35.8333ZM50.2665 27.1667L49.7331 24.3667C49.3331 24.2333 48.9669 24.0671 48.6345 23.868C48.302 23.6689 48.0016 23.4351 47.7331 23.1667L44.9331 24.1L43.0665 20.9L45.3331 18.9C45.2443 18.6778 45.1998 18.5 45.1998 18.3667V17.3C45.1998 17.1667 45.2443 16.9889 45.3331 16.7667L43.0665 14.7667L44.9331 11.5667L47.7331 12.5C47.9998 12.2333 48.3003 11.9996 48.6345 11.7987C48.9687 11.5978 49.3349 11.4316 49.7331 11.3L50.2665 8.5H53.9998L54.5331 11.3C54.9331 11.4333 55.3003 11.6004 55.6345 11.8013C55.9687 12.0022 56.2683 12.2351 56.5331 12.5L59.3331 11.5667L61.1998 14.7667L58.9331 16.7667C59.022 16.9889 59.0665 17.1667 59.0665 17.3V18.3667C59.0665 18.5 59.022 18.6778 58.9331 18.9L61.1998 20.9L59.3331 24.1L56.5331 23.1667C56.2665 23.4333 55.9669 23.6671 55.6345 23.868C55.302 24.0689 54.9349 24.2351 54.5331 24.3667L53.9998 27.1667H50.2665ZM52.1331 21.1667C53.0665 21.1667 53.8558 20.844 54.5011 20.1987C55.1465 19.5533 55.4683 18.7649 55.4665 17.8333C55.4647 16.9018 55.142 16.1124 54.4985 15.4653C53.8549 14.8182 53.0665 14.4964 52.1331 14.5C51.1998 14.5036 50.4105 14.8262 49.7651 15.468C49.1198 16.1098 48.798 16.8982 48.7998 17.8333C48.8016 18.7684 49.1243 19.5578 49.7678 20.2013C50.4114 20.8449 51.1998 21.1667 52.1331 21.1667Z" fill="#7EC1B1"/>
</svg>
