<svg width="64" height="65" viewBox="0 0 64 65" fill="none" xmlns="http://www.w3.org/2000/svg">
<path d="M42.6667 11.1719C48.4667 11.2039 51.608 11.4625 53.656 13.5105C56 15.8545 56 19.6252 56 27.1665V43.1665C56 50.7105 56 54.4812 53.656 56.8252C51.3147 59.1665 47.5413 59.1665 40 59.1665H24C16.4587 59.1665 12.6853 59.1665 10.344 56.8252C8 54.4785 8 50.7105 8 43.1665V27.1665C8 19.6252 8 15.8545 10.344 13.5105C12.392 11.4625 15.5333 11.2039 21.3333 11.1719" stroke="#7EC1B1" stroke-width="1.5625"/>
<path d="M21.3337 37.8333H42.667M18.667 28.5H45.3337M24.0003 47.1667H40.0003" stroke="#7EC1B1" stroke-width="1.5625" stroke-linecap="round"/>
<path d="M21.333 9.83398C21.333 8.77312 21.7544 7.7557 22.5046 7.00556C23.2547 6.25541 24.2721 5.83398 25.333 5.83398H38.6663C39.7272 5.83398 40.7446 6.25541 41.4948 7.00556C42.2449 7.7557 42.6663 8.77312 42.6663 9.83398V12.5007C42.6663 13.5615 42.2449 14.5789 41.4948 15.3291C40.7446 16.0792 39.7272 16.5007 38.6663 16.5007H25.333C24.2721 16.5007 23.2547 16.0792 22.5046 15.3291C21.7544 14.5789 21.333 13.5615 21.333 12.5007V9.83398Z" stroke="#7EC1B1" stroke-width="1.5625"/>
</svg>
